# xmcd CD database file
#
# Track frame offsets:
#	150
#	15788
#	29129
#	50620
#	81531
#	101285
#	123719
#	145497
#	155840
#	185547
#
# Disc length: 2831 seconds
#
# Revision: 0
# Processed by: cddbd v1.4PL0 Copyright (c) Steve Scherf et al.
# Submitted via: Feurio! 1.65.3ß - http://www.feurio.com
#
DISCID=8c0b0d0a
DTITLE=Nobby Reed Project - cure for the blues
DYEAR=2000
DGENRE=Blues
TTITLE0=Heavy Heart
TTITLE1=Kiss Me
TTITLE2=Fill Me Up
TTITLE3=Why?
TTITLE4=Joyride
TTITLE5=The Rev
TTITLE6=How You Feel
TTITLE7=Swing Fling
TTITLE8=Cure For The Blues
TTITLE9=Praying The Blues
EXTD=Canadian Blues Artist
EXTT0=
EXTT1=
EXTT2=
EXTT3=
EXTT4=
EXTT5=
EXTT6=
EXTT7=
EXTT8=
EXTT9=
PLAYORDER=
